<?xml version="1.0" encoding="UTF-8"?>
<svg xmlns="http://www.w3.org/2000/svg" viewBox="0 0 842 224" width="842" height="224" fill="none">
  <title>Eidetic Labs</title>
  <g transform="translate(112.0 112.0) scale(1.0)">
    <rect x="-40" y="-40" width="80" height="16" rx="8" ry="8" fill="#FFFFFF"/>
    <rect x="-40" y="-8" width="56" height="16" rx="8" ry="8" fill="#B4ACE6"/>
    <rect x="-40" y="24" width="80" height="16" rx="8" ry="8" fill="#FFFFFF"/>
  </g>
  <path transform="translate(216.00 148.36)" d="M18.14,-57.89 L18.14,-38.30 L41.19,-38.30 L41.19,-29.38 L18.14,-29.38 L18.14,-8.92 L44.06,-8.92 L44.06,0.00 L7.20,0.00 L7.20,-66.81 L44.06,-66.81 L44.06,-57.89 Z M64.02,-59.91 Q61.05,-59.91 59.04,-61.92 Q57.02,-63.94 57.02,-66.91 Q57.02,-69.89 59.04,-71.91 Q61.05,-73.92 64.02,-73.92 Q66.90,-73.92 68.92,-71.91 Q70.94,-69.89 70.94,-66.91 Q70.94,-63.94 68.92,-61.92 Q66.90,-59.91 64.02,-59.91 Z M69.40,-52.89 L69.40,0.00 L58.46,0.00 L58.46,-52.89 Z M81.11,-26.69 Q81.11,-34.66 84.42,-40.80 Q87.73,-46.94 93.44,-50.35 Q99.15,-53.77 106.17,-53.77 Q111.36,-53.77 116.40,-51.51 Q121.44,-49.25 124.40,-45.50 L124.40,-71.05 L135.45,-71.05 L135.45,0.00 L124.40,0.00 L124.40,-7.97 Q121.72,-4.12 116.97,-1.63 Q112.22,0.86 106.08,0.86 Q99.15,0.86 93.44,-2.64 Q87.73,-6.14 84.42,-12.43 Q81.11,-18.72 81.11,-26.69 Z M124.40,-26.50 Q124.40,-31.97 122.15,-36.00 Q119.90,-40.03 116.26,-42.14 Q112.61,-44.25 108.37,-44.25 Q104.15,-44.25 100.51,-42.19 Q96.86,-40.12 94.60,-36.14 Q92.34,-32.16 92.34,-26.69 Q92.34,-21.22 94.60,-17.09 Q96.86,-12.95 100.55,-10.80 Q104.25,-8.64 108.37,-8.64 Q112.61,-8.64 116.26,-10.75 Q119.90,-12.86 122.15,-16.95 Q124.40,-21.03 124.40,-26.50 Z M199.30,-27.75 Q199.30,-24.77 198.91,-22.38 L158.49,-22.38 Q158.97,-16.03 163.20,-12.20 Q167.43,-8.36 173.57,-8.36 Q182.40,-8.36 186.05,-15.75 L197.85,-15.75 Q195.46,-8.45 189.17,-3.80 Q182.88,0.86 173.57,0.86 Q165.99,0.86 159.99,-2.55 Q153.99,-5.95 150.58,-12.15 Q147.16,-18.34 147.16,-26.50 Q147.16,-34.66 150.47,-40.85 Q153.79,-47.05 159.79,-50.41 Q165.79,-53.77 173.57,-53.77 Q181.05,-53.77 186.91,-50.50 Q192.77,-47.23 196.04,-41.33 Q199.30,-35.42 199.30,-27.75 Z M187.86,-31.20 Q187.77,-37.25 183.55,-40.90 Q179.33,-44.55 173.08,-44.55 Q167.43,-44.55 163.40,-40.95 Q159.36,-37.34 158.58,-31.20 Z M223.78,-43.97 L223.78,-14.69 Q223.78,-11.72 225.17,-10.42 Q226.56,-9.12 229.92,-9.12 L236.64,-9.12 L236.64,0.00 L228.00,0.00 Q220.61,0.00 216.67,-3.45 Q212.73,-6.91 212.73,-14.69 L212.73,-43.97 L206.50,-43.97 L206.50,-52.89 L212.73,-52.89 L212.73,-66.05 L223.78,-66.05 L223.78,-52.89 L236.64,-52.89 L236.64,-43.97 Z M253.25,-59.91 Q250.28,-59.91 248.27,-61.92 Q246.25,-63.94 246.25,-66.91 Q246.25,-69.89 248.27,-71.91 Q250.28,-73.92 253.25,-73.92 Q256.13,-73.92 258.15,-71.91 Q260.18,-69.89 260.18,-66.91 Q260.18,-63.94 258.15,-61.92 Q256.13,-59.91 253.25,-59.91 Z M258.63,-52.89 L258.63,0.00 L247.69,0.00 L247.69,-52.89 Z M270.34,-26.50 Q270.34,-34.66 273.65,-40.85 Q276.96,-47.05 282.82,-50.41 Q288.68,-53.77 296.26,-53.77 Q305.87,-53.77 312.15,-49.20 Q318.43,-44.64 320.65,-36.19 L308.84,-36.19 Q307.40,-40.12 304.23,-42.34 Q301.06,-44.55 296.26,-44.55 Q289.54,-44.55 285.56,-39.80 Q281.57,-35.05 281.57,-26.50 Q281.57,-17.95 285.56,-13.16 Q289.54,-8.36 296.26,-8.36 Q305.76,-8.36 308.84,-16.70 L320.65,-16.70 Q318.34,-8.64 312.00,-3.89 Q305.67,0.86 296.26,0.86 Q288.68,0.86 282.82,-2.55 Q276.96,-5.95 273.65,-12.15 Q270.34,-18.34 270.34,-26.50 Z M369.40,-8.83 L391.96,-8.83 L391.96,0.00 L358.46,0.00 L358.46,-66.72 L369.40,-66.72 Z M398.39,-26.69 Q398.39,-34.66 401.70,-40.80 Q405.01,-46.94 410.73,-50.35 Q416.44,-53.77 423.36,-53.77 Q429.59,-53.77 434.25,-51.31 Q438.91,-48.86 441.69,-45.22 L441.69,-52.89 L452.73,-52.89 L452.73,0.00 L441.69,0.00 L441.69,-7.88 Q438.91,-4.12 434.11,-1.63 Q429.31,0.86 423.16,0.86 Q416.34,0.86 410.68,-2.64 Q405.01,-6.14 401.70,-12.43 Q398.39,-18.72 398.39,-26.69 Z M441.69,-26.50 Q441.69,-31.97 439.44,-36.00 Q437.19,-40.03 433.54,-42.14 Q429.89,-44.25 425.66,-44.25 Q421.44,-44.25 417.79,-42.19 Q414.14,-40.12 411.88,-36.14 Q409.62,-32.16 409.62,-26.69 Q409.62,-21.22 411.88,-17.09 Q414.14,-12.95 417.84,-10.80 Q421.53,-8.64 425.66,-8.64 Q429.89,-8.64 433.54,-10.75 Q437.19,-12.86 439.44,-16.95 Q441.69,-21.03 441.69,-26.50 Z M479.04,-45.03 Q481.82,-48.86 486.67,-51.31 Q491.52,-53.77 497.47,-53.77 Q504.47,-53.77 510.14,-50.41 Q515.80,-47.05 519.07,-40.85 Q522.33,-34.66 522.33,-26.69 Q522.33,-18.72 519.07,-12.43 Q515.80,-6.14 510.09,-2.64 Q504.38,0.86 497.47,0.86 Q491.33,0.86 486.58,-1.54 Q481.82,-3.94 479.04,-7.69 L479.04,0.00 L468.10,0.00 L468.10,-71.05 L479.04,-71.05 Z M511.19,-26.69 Q511.19,-32.16 508.94,-36.14 Q506.69,-40.12 503.00,-42.19 Q499.30,-44.25 495.07,-44.25 Q490.94,-44.25 487.25,-42.14 Q483.55,-40.03 481.30,-36.00 Q479.04,-31.97 479.04,-26.50 Q479.04,-21.03 481.30,-16.95 Q483.55,-12.86 487.25,-10.75 Q490.94,-8.64 495.07,-8.64 Q499.30,-8.64 503.00,-10.80 Q506.69,-12.95 508.94,-17.09 Q511.19,-21.22 511.19,-26.69 Z M553.36,0.86 Q547.11,0.86 542.16,-1.39 Q537.22,-3.64 534.34,-7.53 Q531.47,-11.42 531.26,-16.22 L542.59,-16.22 Q542.89,-12.86 545.82,-10.61 Q548.75,-8.36 553.15,-8.36 Q557.76,-8.36 560.31,-10.13 Q562.86,-11.91 562.86,-14.69 Q562.86,-17.66 560.02,-19.10 Q557.18,-20.55 551.04,-22.27 Q545.09,-23.91 541.35,-25.44 Q537.61,-26.97 534.87,-30.14 Q532.14,-33.31 532.14,-38.50 Q532.14,-42.72 534.63,-46.23 Q537.12,-49.73 541.78,-51.75 Q546.43,-53.77 552.48,-53.77 Q561.51,-53.77 567.03,-49.20 Q572.54,-44.64 572.93,-36.77 L562.00,-36.77 Q561.70,-40.31 559.11,-42.43 Q556.51,-44.55 552.11,-44.55 Q547.78,-44.55 545.47,-42.91 Q543.17,-41.28 543.17,-38.59 Q543.17,-36.48 544.71,-35.04 Q546.25,-33.59 548.46,-32.78 Q550.67,-31.97 554.98,-30.72 Q560.75,-29.19 564.44,-27.60 Q568.14,-26.02 570.83,-22.95 Q573.51,-19.88 573.61,-14.78 Q573.61,-10.27 571.11,-6.72 Q568.61,-3.17 564.05,-1.16 Q559.50,0.86 553.36,0.86 Z" fill="#FFFFFF" fill-rule="evenodd"/>
</svg>
